# xmcd
#
# Track frame offsets:
#	150
#	13122
#	29439
#	41666
#	59067
#	73448
#	82116
#	93760
#	112350
#	125386
#	136812
#	149602
#	166244
#
# Disc length: 2586 seconds
#
# Revision: 0
# Processed by: cddbd v1.5.2PL0 Copyright (c) Steve Scherf et al.
# Submitted via: dBpowerAMP V4.0
#
DISCID=c60a180d
DTITLE=Cowboy Kollektiv - Cowboy Kollektiv
DYEAR=2004
DGENRE=Country
TTITLE0=Ich von Dir
TTITLE1=Wir waren nirgendwo
TTITLE2=Geht ein Ruck
TTITLE3=Tage wie Fremde
TTITLE4=Satt und glücklich
TTITLE5=Ich mach's Dir gut
TTITLE6=Fieber
TTITLE7=Best Western Hote
TTITLE8=2 Euro Baby
TTITLE9=Glücklicher sein
TTITLE10=Warten
TTITLE11=Komm heim
TTITLE12=DJs Tanzen
EXTD=
EXTT0=
EXTT1=
EXTT2=
EXTT3=
EXTT4=
EXTT5=
EXTT6=
EXTT7=
EXTT8=
EXTT9=
EXTT10=
EXTT11=
EXTT12=
PLAYORDER=
